HIERARCHY
ROOT joint_Root
{
	OFFSET 0.0 0.0 0.0
	CHANNELS 6 Xposition Yposition Zposition Zrotation Xrotation Yrotation 
	JOINT Hips
	{
		OFFSET -17.1583 93.1646 452.98
		CHANNELS 6 Xposition Yposition Zposition Zrotation Xrotation Yrotation 
		JOINT Spine
		{
			OFFSET 15.7357 0.0 0.0
			CHANNELS 6 Xposition Yposition Zposition Zrotation Xrotation Yrotation 
			JOINT Chest
			{
				OFFSET 8.98455 -0.406207 0.0
				CHANNELS 6 Xposition Yposition Zposition Zrotation Xrotation Yrotation 
				JOINT Neck
				{
					OFFSET 16.3773 0.0 0.0
					CHANNELS 6 Xposition Yposition Zposition Zrotation Xrotation Yrotation 
					JOINT Head
					{
						OFFSET 6.45672 0.0 0.0
						CHANNELS 6 Xposition Yposition Zposition Zrotation Xrotation Yrotation 
						End Site
						{
							OFFSET 0.0 0.0 0.0
						}
					}
				}
				JOINT Shoulder_L
				{
					OFFSET 12.9942 -0.242716 4.98039
					CHANNELS 6 Xposition Yposition Zposition Zrotation Xrotation Yrotation 
					JOINT UpperArm_L
					{
						OFFSET 5.34809 0.0 0.0
						CHANNELS 6 Xposition Yposition Zposition Zrotation Xrotation Yrotation 
						JOINT LowerArm_L
						{
							OFFSET 24.3286 1.87007e-05 0.0
							CHANNELS 6 Xposition Yposition Zposition Zrotation Xrotation Yrotation 
							JOINT Hand_L
							{
								OFFSET 22.2916 0.0 0.0
								CHANNELS 6 Xposition Yposition Zposition Zrotation Xrotation Yrotation 
								End Site
								{
									OFFSET 0.0 0.0 0.0
								}
							}
						}
					}
				}
				JOINT Shoulder_R
				{
					OFFSET 12.9945 -0.242716 -4.98039
					CHANNELS 6 Xposition Yposition Zposition Zrotation Xrotation Yrotation 
					JOINT UpperArm_R
					{
						OFFSET -5.34813 0.0 0.0
						CHANNELS 6 Xposition Yposition Zposition Zrotation Xrotation Yrotation 
						JOINT LowerArm_R
						{
							OFFSET -24.3289 0.000322201 0.0
							CHANNELS 6 Xposition Yposition Zposition Zrotation Xrotation Yrotation 
							JOINT Hand_R
							{
								OFFSET -22.2915 -0.000108084 0.0
								CHANNELS 6 Xposition Yposition Zposition Zrotation Xrotation Yrotation 
								End Site
								{
									OFFSET 0.0 0.0 0.0
								}
							}
						}
					}
				}
			}
		}
		JOINT UpperLeg_L
		{
			OFFSET -2.19248 -6.46944 0.0
			CHANNELS 6 Xposition Yposition Zposition Zrotation Xrotation Yrotation 
			JOINT LowerLeg_L
			{
				OFFSET 39.0811 0.0 -1.23785e-05
				CHANNELS 6 Xposition Yposition Zposition Zrotation Xrotation Yrotation 
				JOINT Foot_L
				{
					OFFSET 40.9854 0.0 -1.26872e-05
					CHANNELS 6 Xposition Yposition Zposition Zrotation Xrotation Yrotation 
					JOINT Toes_L
					{
						OFFSET 11.7543 0.0 0.0
						CHANNELS 6 Xposition Yposition Zposition Zrotation Xrotation Yrotation 
						End Site
						{
							OFFSET 0.0 0.0 0.0
						}
					}
				}
			}
		}
		JOINT UpperLeg_R
		{
			OFFSET -2.19251 6.46944 0.0
			CHANNELS 6 Xposition Yposition Zposition Zrotation Xrotation Yrotation 
			JOINT LowerLeg_R
			{
				OFFSET -39.0811 -0.00228153 -0.0401928
				CHANNELS 6 Xposition Yposition Zposition Zrotation Xrotation Yrotation 
				JOINT Foot_R
				{
					OFFSET -40.9854 0.0 0.0
					CHANNELS 6 Xposition Yposition Zposition Zrotation Xrotation Yrotation 
					JOINT Toes_R
					{
						OFFSET -11.7543 0.0 0.0
						CHANNELS 6 Xposition Yposition Zposition Zrotation Xrotation Yrotation 
						End Site
						{
							OFFSET 0.0 0.0 0.0
						}
					}
				}
			}
		}
	}
}
MOTION
Frames:	7
Frame Time:	0.0333333
0.000000 0.000000 0.000000 0.000000 0.000000 -0.000000 -4.041330 91.928300 -1.175370 84.879100 0.702753 5.613040 15.735700 0.000005 -0.000001 77.260100 86.561500 -74.889900 8.984550 -0.406207 -0.000000 -1.018800 -1.697840 4.723700 16.377300 -0.000001 -0.000001 9.978090 3.294470 -3.394570 6.456720 -0.000001 -0.000000 -1.964420 3.589230 -1.976000 12.994200 -0.242716 4.980390 -92.996900 8.349040 -70.173000 5.348090 -0.000007 -0.000001 -73.082200 28.194400 -0.029575 24.328600 0.000019 0.000005 11.344400 27.744200 -23.314400 22.291600 -0.000001 0.000005 -1.925600 4.987130 7.592010 12.994500 -0.242716 -4.980390 87.509100 6.513580 -69.019400 -5.348130 -0.000001 -0.000004 -70.380900 19.034100 -2.243250 -24.328900 0.000322 -0.000009 2.403410 5.926430 -22.130700 -22.291500 -0.000108 -0.000004 -0.803886 5.295710 0.192483 -2.192480 -6.469440 -0.000000 -172.835000 5.410960 -2.613100 39.081100 -0.000007 -0.000012 0.356159 -0.672913 27.892100 40.985400 -0.000006 -0.000013 -0.859834 3.805000 -75.777100 11.754300 -0.000000 0.000003 0.000271 0.162924 -9.968910 -2.192510 6.469440 -0.000001 -170.662000 9.074950 -175.511000 -39.081100 -0.002282 -0.040193 0.122011 -0.418829 15.821100 -40.985400 0.000008 0.000006 5.637470 2.705030 -71.178900 -11.754300 -0.000006 -0.000006 -0.011126 0.279537 -5.214170
0.000000 0.000000 0.000000 0.000000 0.000000 -0.000000 -4.026040 91.932600 -1.185740 84.877900 0.704252 5.643380 15.735700 0.000005 -0.000001 77.204200 86.542000 -74.840500 8.984550 -0.406207 -0.000000 -0.982088 -1.711760 4.710950 16.377300 -0.000001 -0.000001 9.987950 3.308480 -3.391720 6.456720 -0.000001 -0.000000 -2.013080 3.600720 -1.929090 12.994200 -0.242716 4.980390 -93.007400 8.363780 -70.141200 5.348090 -0.000007 -0.000001 -73.053500 28.132500 -0.054133 24.328600 0.000019 0.000005 11.354700 27.775400 -23.312200 22.291600 -0.000001 0.000005 -2.077450 4.986570 7.603730 12.994500 -0.242716 -4.980390 87.509700 6.490170 -68.954900 -5.348130 -0.000001 -0.000004 -70.315300 18.722200 -2.007010 -24.328900 0.000322 -0.000009 2.536600 5.849520 -23.503000 -22.291500 -0.000108 -0.000004 -1.094100 5.285680 0.470715 -2.192480 -6.469440 -0.000000 -172.852000 5.401640 -2.577620 39.081100 -0.000007 -0.000012 0.358172 -0.677053 27.880400 40.985400 -0.000006 -0.000013 -0.851928 3.789120 -75.792200 11.754300 -0.000000 0.000003 0.000201 0.164161 -9.918680 -2.192510 6.469440 -0.000001 -170.676000 9.023370 -175.501000 -39.081100 -0.002282 -0.040193 0.121277 -0.415571 15.845200 -40.985400 0.000008 0.000006 5.549390 2.714690 -71.158500 -11.754300 -0.000006 -0.000006 -0.011215 0.280171 -5.188190
0.000000 0.000000 0.000000 0.000000 0.000000 -0.000000 -4.004380 91.945600 -1.232320 84.872400 0.645306 5.622420 15.735700 0.000005 -0.000001 77.489300 86.541700 -75.126700 8.984550 -0.406207 -0.000000 -0.974802 -1.678060 4.709080 16.377300 -0.000001 -0.000001 9.935640 3.292310 -3.364290 6.456720 -0.000001 -0.000000 -2.060360 3.587580 -1.886310 12.994200 -0.242716 4.980390 -93.015200 8.380120 -70.128800 5.348090 -0.000007 -0.000001 -73.032500 28.086700 -0.056549 24.328600 0.000019 0.000005 11.313700 27.728100 -23.267500 22.291600 -0.000001 0.000005 -1.995120 4.990140 7.528350 12.994500 -0.242716 -4.980390 87.501300 6.491320 -68.893500 -5.348130 -0.000001 -0.000004 -70.214600 17.944600 -1.577890 -24.328900 0.000322 -0.000009 2.808150 5.823120 -25.810200 -22.291500 -0.000108 -0.000004 -1.789410 5.260210 1.163120 -2.192480 -6.469440 -0.000000 -172.852000 5.358830 -2.601580 39.081100 -0.000007 -0.000012 0.354940 -0.672055 27.841200 40.985400 -0.000006 -0.000013 -0.847781 3.768180 -75.755700 11.754300 -0.000000 0.000003 0.000251 0.163294 -9.953900 -2.192510 6.469440 -0.000001 -170.666000 8.914100 -175.547000 -39.081100 -0.002282 -0.040193 0.119407 -0.409593 15.822800 -40.985400 0.000008 0.000006 5.491070 2.635890 -71.102100 -11.754300 -0.000006 -0.000006 -0.011147 0.279686 -5.208060
0.000000 0.000000 0.000000 0.000000 0.000000 -0.000000 -3.976560 91.944700 -1.262910 84.863600 0.612948 5.579330 15.735700 0.000005 -0.000001 77.426900 86.538800 -75.055600 8.984550 -0.406207 -0.000000 -0.970298 -1.687270 4.726750 16.377300 -0.000001 -0.000001 9.856810 3.293350 -3.314700 6.456720 -0.000001 -0.000000 -2.153560 3.587170 -1.798790 12.994200 -0.242716 4.980390 -93.026200 8.394660 -70.093700 5.348090 -0.000007 -0.000001 -73.029400 28.055500 -0.032682 24.328600 0.000019 0.000005 11.313500 27.620000 -23.342000 22.291600 -0.000001 0.000005 -1.985060 4.985540 7.625390 12.994500 -0.242716 -4.980390 87.477700 6.518490 -68.792100 -5.348130 -0.000001 -0.000004 -70.026700 16.710400 -1.003610 -24.328900 0.000322 -0.000009 3.070380 5.519000 -29.159600 -22.291500 -0.000108 -0.000004 -2.571220 5.223610 2.120550 -2.192480 -6.469440 -0.000000 -172.861000 5.371720 -2.680840 39.081100 -0.000007 -0.000012 0.356811 -0.674631 27.875100 40.985400 -0.000006 -0.000013 -0.832348 3.755080 -75.727500 11.754300 -0.000000 0.000003 0.000226 0.163727 -9.936330 -2.192510 6.469440 -0.000001 -170.660000 8.914180 -175.618000 -39.081100 -0.002282 -0.040193 0.121538 -0.416479 15.845600 -40.985400 0.000008 0.000006 5.564620 2.644300 -71.114700 -11.754300 -0.000006 -0.000006 -0.011419 0.281616 -5.129050
0.000000 0.000000 0.000000 0.000000 0.000000 -0.000000 -3.959490 91.956200 -1.314400 84.826100 0.628676 5.569050 15.735700 0.000005 -0.000001 77.023500 86.521400 -74.629800 8.984550 -0.406207 -0.000000 -0.945548 -1.743800 4.771340 16.377300 -0.000001 -0.000001 9.743020 3.306650 -3.206650 6.456720 -0.000001 -0.000000 -2.333660 3.606390 -1.619940 12.994200 -0.242716 4.980390 -93.052300 8.434970 -70.023300 5.348090 -0.000007 -0.000001 -73.001700 28.036100 -0.016019 24.328600 0.000019 0.000005 11.333900 27.598500 -23.395600 22.291600 -0.000001 0.000005 -1.980830 4.988990 7.552640 12.994500 -0.242716 -4.980390 87.497700 6.438700 -68.709100 -5.348130 -0.000001 -0.000004 -69.881700 15.308400 -0.301703 -24.328900 0.000322 -0.000009 3.440590 5.203780 -33.547900 -22.291500 -0.000108 -0.000004 -3.105790 5.186910 3.046590 -2.192480 -6.469440 -0.000000 -172.833000 5.381750 -2.732390 39.081100 -0.000007 -0.000012 0.353748 -0.668973 27.870300 40.985400 -0.000006 -0.000013 -0.829968 3.732850 -75.678500 11.754300 -0.000000 0.000003 0.000278 0.162812 -9.973470 -2.192510 6.469440 -0.000001 -170.643000 8.914570 -175.656000 -39.081100 -0.002282 -0.040193 0.117599 -0.403468 15.813400 -40.985400 0.000008 0.000006 5.468010 2.660500 -71.017800 -11.754300 -0.000006 -0.000006 -0.011127 0.279544 -5.213890
0.000000 0.000000 0.000000 0.000000 0.000000 -0.000000 -3.929940 91.968200 -1.366950 84.812200 0.622789 5.501600 15.735700 0.000005 -0.000001 76.658500 86.521400 -74.251800 8.984550 -0.406207 -0.000000 -0.954511 -1.788110 4.796940 16.377300 -0.000001 -0.000001 9.600990 3.286070 -2.991920 6.456720 -0.000001 -0.000000 -2.579370 3.615200 -1.361940 12.994200 -0.242716 4.980390 -93.061500 8.445630 -69.990300 5.348090 -0.000007 -0.000001 -72.992500 28.022100 -0.001753 24.328600 0.000019 0.000005 11.346100 27.548000 -23.454000 22.291600 -0.000001 0.000005 -2.070490 4.986550 7.604270 12.994500 -0.242716 -4.980390 87.533000 6.321060 -68.629100 -5.348130 -0.000001 -0.000004 -69.766600 13.436100 0.639304 -24.328900 0.000322 -0.000009 4.385330 5.354000 -39.417900 -22.291500 -0.000108 -0.000004 -3.670760 5.139740 4.189380 -2.192480 -6.469440 -0.000000 -172.837000 5.404660 -2.824250 39.081100 -0.000007 -0.000012 0.354994 -0.671676 27.858100 40.985400 -0.000006 -0.000013 -0.819582 3.710070 -75.694100 11.754300 -0.000000 0.000003 0.000204 0.164113 -9.920660 -2.192510 6.469440 -0.000001 -170.637000 8.855030 -175.769000 -39.081100 -0.002282 -0.040193 0.116402 -0.398767 15.831100 -40.985400 0.000008 0.000006 5.334030 2.687870 -70.977700 -11.754300 -0.000006 -0.000006 -0.011131 0.279572 -5.212740
0.000000 0.000000 0.000000 0.000000 0.000000 -0.000000 -3.896090 91.971600 -1.413340 84.777300 0.600160 5.451260 15.735700 0.000005 -0.000001 76.403500 86.526100 -73.978000 8.984550 -0.406207 -0.000000 -0.969929 -1.817750 4.833950 16.377300 -0.000001 -0.000001 9.421760 3.273880 -2.728700 6.456720 -0.000001 -0.000000 -2.898430 3.630590 -0.917556 12.994200 -0.242716 4.980390 -93.069500 8.464790 -69.983900 5.348090 -0.000007 -0.000001 -72.980600 27.968400 0.049242 24.328600 0.000019 0.000005 11.373500 27.572100 -23.488900 22.291600 -0.000001 0.000005 -2.023320 4.991040 7.509400 12.994500 -0.242716 -4.980390 87.597000 6.129730 -68.545100 -5.348130 -0.000001 -0.000004 -69.722400 11.288100 1.698860 -24.328900 0.000322 -0.000009 5.535090 5.305230 -46.347100 -22.291500 -0.000108 -0.000004 -3.921430 5.095950 5.205150 -2.192480 -6.469440 -0.000000 -172.823000 5.399340 -2.926050 39.081100 -0.000007 -0.000012 0.355923 -0.672283 27.898600 40.985400 -0.000006 -0.000013 -0.810579 3.664220 -75.669500 11.754300 -0.000000 0.000003 0.000129 0.165425 -9.867370 -2.192510 6.469440 -0.000001 -170.605000 8.849060 -175.832000 -39.081100 -0.002282 -0.040193 0.116363 -0.399856 15.785100 -40.985400 0.000008 0.000006 5.440750 2.657730 -70.911000 -11.754300 -0.000006 -0.000006 -0.010866 0.277666 -5.290730
